# AST/ASF file generated using VICON BodyLanguage
# -----------------------------------------------
:version 1.10
:name VICON
:units
  mass 1.0
  length 0.45
  angle deg
:documentation
   .ast/.asf automatically generated from VICON data using
   VICON BodyBuilder and BodyLanguage model FoxedUp or BRILLIANT.MOD
:root
   order TX TY TZ RX RY RZ
   axis XYZ
   position 0 0 0  
   orientation 0 0 0 
:bonedata
  begin
     id 1 
     name lhipjoint
     direction 0.561001 -0.76473 0.316963 
     length 2.4722 
     axis 0 0 0  XYZ
  end
  begin
     id 2 
     name lfemur
     direction 0.34202 -0.939693 0  
     length 7.59403  
     axis 0 0 20  XYZ
    dof rx ry rz
    limits (-160.0 20.0)
           (-70.0 70.0)
           (-60.0 70.0)
  end
  begin
     id 3 
     name ltibia
     direction 0.34202 -0.939693 0   
     length 7.89655   
     axis 0 0 20   XYZ
    dof rx
    limits (-10.0 170.0)
  end
  begin
     id 4 
     name lfoot
     direction 0.061296 -0.168409 0.98381   
     length 2.73287   
     axis -90 7.62852e-016 20   XYZ
    dof rx rz
    limits (-45.0 90.0)
           (-70.0 20.0)
  end
  begin
     id 5 
     name ltoes
     direction 1.53547e-011 -4.21984e-011 1   
     length 1.37057   
     axis -90 7.62852e-016 20   XYZ
    dof rx
    limits (-90.0 20.0)
  end
  begin
     id 6 
     name rhipjoint
     direction -0.559611 -0.765599 0.317323   
     length 2.46939  
     axis 0 0 0  XYZ 
  end
  begin
     id 7 
     name rfemur
     direction -0.34202 -0.939693 0   
     length 7.53712   
     axis 0 0 -20   XYZ
    dof rx ry rz
    limits (-160.0 20.0)
           (-70.0 70.0)
           (-70.0 60.0)
  end
  begin
     id 8 
     name rtibia
     direction -0.34202 -0.939693 0   
     length 8.12549   
     axis 0 0 -20   XYZ
    dof rx
    limits (-10.0 170.0)
 end
 begin
     id 9 
     name rfoot
     direction -0.066984 -0.184037 0.980634   
     length 2.67541  
     axis -90 -7.62852e-016 -20   XYZ
    dof rx rz
    limits (-45.0 90.0)
           (-20.0 70.0)
  end
  begin
     id 10 
     name rtoes
     direction -1.53549e-011 -4.21786e-011 1   
     length 1.34085   
     axis -90 -7.62852e-016 -20   XYZ
    dof rx
    limits (-90.0 20.0)
  end
  begin
     id 11 
     name lowerback
     direction -0.0522728 0.992594 -0.109658   
     length 2.05633   
     axis 0 0 0   XYZ
    dof rx ry rz
    limits (-20.0 45.0)
           (-30.0 30.0)
           (-30.0 30.0)
  end
  begin
     id 12 
     name upperback
     direction 0.00589338 0.999977 0.00335704   
     length 2.05845   
     axis 0 0 0   XYZ
    dof rx ry rz
    limits (-20.0 45.0)
           (-30.0 30.0)
           (-30.0 30.0)
  end
  begin
     id 13 
     name thorax
     direction 0.0292928 0.998059 0.0549487   
     length 2.09281   
     axis 0 0 0   XYZ
    dof rx ry rz
    limits (-20.0 45.0)
           (-30.0 30.0)
           (-30.0 30.0)
  end
  begin
     id 14 
     name lowerneck
     direction 0.0356368 0.980775 0.191858   
     length 1.84767   
     axis 0 0 0   XYZ
    dof rx ry rz
    limits (-20.0 45.0)
           (-30.0 30.0)
           (-30.0 30.0)
  end
  begin
     id 15 
     name upperneck
     direction -0.0227605 0.98931 -0.14404   
     length 1.89582   
     axis 0 0 0   XYZ
    dof rx ry rz
    limits (-20.0 45.0)
           (-30.0 30.0)
           (-30.0 30.0)
  end
  begin
     id 16
     name head
     direction -0.00932985 0.997511 -0.0698904  
     length 1.90213  
     axis 0 0 0   XYZ
    dof rx ry rz
    limits (-20.0 45.0)
           (-30.0 30.0)
           (-30.0 30.0)
  end
  begin
     id 17 
     name lclavicle
     direction 0.873442 0.479511 0.0846686  
     length 3.41193  
     axis 0 0 0   XYZ
    dof ry rz
    limits (-20.0 10.0)
           (0.0 20.0)
  end
  begin
     id 18 
     name lhumerus
     direction 1 -4.4897e-011 -5.62117e-018   
     length 5.59864   
     axis 180 -30 -90   XYZ
    dof rx ry rz
    limits (-60.0 90.0)
           (-90.0 90.0)
           (-90.0 90.0)
  end
  begin
     id 19
     name lradius
     direction 1 -4.48966e-011 -6.26295e-027   
     length 3.59542   
     axis 180 -30 -90   XYZ
    dof rx
    limits (-10.0 170.0)
  end
  begin
     id 20
     name lwrist
     direction 1 -4.48947e-011 -1.74096e-026   
     length 1.79771   
     axis 1.04567e-014 90 90   XYZ
    dof ry
    limits (-180.0 0.0)
 end
  begin
     id 21 
     name lhand
     direction 1 -4.49085e-011 -3.48469e-026   
     length 0.572014   
     axis 2.22196e-014 90 90   XYZ
    dof rx rz
    limits (-90.0 90.0)
           (-45.0 45.0)
  end
  begin
     id 22 
     name lfingers
     direction 1 -4.48884e-011 -6.96135e-026   
     length 0.461173   
     axis 4.44383e-014 90 90   XYZ
    dof rx
    limits (0.0 90.0)
  end
  begin
     id 23
     name lthumb
     direction 0.707107 -6.34976e-011 0.707107   
     length 0.662154   
     axis -90 45 -5.4397e-014   XYZ
    dof rx rz
    limits (-45.0 45.0)
           (-45.0 45.0)
  end
  begin
     id 24 
     name rclavicle
     direction -0.890242 0.443271 0.104786   
     length 3.46753  
     axis 0 0 0   XYZ 
    dof ry rz
    limits (-10.0 20.0)
           (-20.0 0.0)
  end
  begin
     id 25 
     name rhumerus
     direction -1 -4.48963e-011 -5.41723e-018  
     length 5.8094   
     axis 180 30 90   XYZ
    dof rx ry rz
    limits (-90.0 60.0)
           (-90.0 90.0)
           (-90.0 90.0)
  end
  begin
     id 26 
     name rradius
     direction -1 -4.48958e-011 -6.51059e-027   
     length 3.66953   
     axis 180 30 90   XYZ
    dof rx
    limits (-10.0 170.0)
  end
  begin
     id 27 
     name rwrist
     direction -1 -4.48975e-011 -1.74124e-026   
     length 1.83476   
     axis 1.04567e-014 -90 -90   XYZ
    dof ry
    limits (-180.0 0.0)
  end
  begin
     id 28
     name rhand
     direction -1 -4.49013e-011 -3.48326e-026   
     length 0.57843   
     axis 2.22196e-014 -90 -90   XYZ
    dof rx rz
    limits (-90.0 90.0)
           (-45.0 45.0)
  end
  begin
     id 29
     name rfingers
     direction -1 -4.49023e-011 -6.9669e-026   
     length 0.466345   
     axis 4.44383e-014 -90 -90   XYZ
    dof rx
    limits (0.0 90.0)
  end
  begin
     id 30
     name rthumb
     direction -0.707107 -6.34926e-011 0.707107   
     length 0.669581   
     axis -90 -45 5.4397e-014   XYZ
    dof rx rz
    limits (-45.0 45.0)
           (-45.0 45.0)
  end
:hierarchy
  begin
    root lhipjoint rhipjoint lowerback
    lhipjoint lfemur
    lfemur ltibia
    ltibia lfoot
    lfoot ltoes
    rhipjoint rfemur
    rfemur rtibia
    rtibia rfoot
    rfoot rtoes
    lowerback upperback
    upperback thorax
    thorax lowerneck lclavicle rclavicle
    lowerneck upperneck
    upperneck head
    lclavicle lhumerus
    lhumerus lradius
    lradius lwrist
    lwrist lhand lthumb
    lhand lfingers
    rclavicle rhumerus
    rhumerus rradius
    rradius rwrist
    rwrist rhand rthumb
    rhand rfingers
  end

#!OML:ASF H:\SkateBoarding\Project 1\Capture day 1\Session 1\Skater.ASF
:FULLY-SPECIFIED
:DEGREES
284
root 3.80396 18.986 59.8806 -191.844 74.5913 -190.781
lowerback 8.11402 -1.10272 -2.79785
upperback -0.0694125 -1.75151 -0.80713
thorax -4.56612 -0.80324 0.94138
lowerneck -12.5346 -7.77229 -3.47073
upperneck 45.5283 -6.20832 -4.17777
head 19.808 -2.66001 -2.33808
rclavicle -2.86564e-014 8.38623e-015
rhumerus -40.9388 0.901287 -86.1411
rradius 45.4354
rwrist -15.0427
rhand -25.4804 -12.2793
rfingers 7.12502
rthumb 1.04761 -42.2565
lclavicle -2.86564e-014 8.38623e-015
lhumerus -30.2131 -1.01054 92.7162
lradius 24.5082
lwrist 9.24577
lhand -23.0153 15.6146
lfingers 7.12502
lthumb 3.42829 45.5668
rfemur -15.8968 -4.50368 15.3346
rtibia 47.4574
rfoot -28.7471 16.3734
rtoes -6.17462
lfemur -3.6082 -7.49246 -11.7996
ltibia 35.67
lfoot -38.4549 1.79541
ltoes -19.7553
285
root 3.94282 18.9858 60.1159 -192.165 74.5904 -191.125
lowerback 8.09607 -1.05464 -2.93873
upperback -0.0726095 -1.70213 -0.869655
thorax -4.55908 -0.775934 0.949299
lowerneck -12.5697 -7.7785 -3.39868
upperneck 45.4941 -6.21966 -4.24117
head 19.7845 -2.66347 -2.38405
rclavicle -3.70733e-014 2.88238e-015
rhumerus -41.0004 1.01156 -86.293
rradius 45.4714
rwrist -15.2159
rhand -25.3454 -12.2658
rfingers 7.12502
rthumb 1.17794 -42.2423
lclavicle -3.70733e-014 2.88238e-015
lhumerus -30.5692 0.0688513 91.8022
lradius 24.4091
lwrist 9.07903
lhand -23.5681 16.2664
lfingers 7.12502
lthumb 2.89449 46.2265
rfemur -15.9905 -4.52137 15.2767
rtibia 47.6226
rfoot -28.7962 16.2233
rtoes -6.21239
lfemur -3.61642 -7.54861 -11.8539
ltibia 35.6208
lfoot -38.3685 1.67793
ltoes -19.4995
286
root 4.07757 18.9832 60.3512 -192.126 74.5386 -191.077
lowerback 8.15972 -1.09138 -2.97246
upperback -0.0765919 -1.7569 -0.878268
thorax -4.59634 -0.801562 0.967203
lowerneck -12.6343 -7.7171 -3.3969
upperneck 45.4509 -6.1184 -4.26493
head 19.7748 -2.63064 -2.37827
rclavicle 3.95069e-014 0
rhumerus -41.0358 1.34702 -86.4548
rradius 45.504
rwrist -15.3667
rhand -25.3828 -12.3108
rfingers 7.12502
rthumb 1.14186 -42.2875
lclavicle 3.95069e-014 0
lhumerus -30.9605 1.25685 90.9238
lradius 24.3909
lwrist 9.11559
lhand -24.1194 16.5966
lfingers 7.12502
lthumb 2.36203 46.5633
rfemur -16.0469 -4.59879 15.307
rtibia 47.7405
rfoot -28.8486 16.1181
rtoes -6.38543
lfemur -3.73756 -6.87742 -11.6099
ltibia 35.6455
lfoot -37.7611 1.25299
ltoes -19.7753
287
root 4.21749 18.9823 60.5863 -193.007 74.4818 -192.003
lowerback 8.1044 -1.03176 -3.33393
upperback -0.0514467 -1.71056 -0.968553
thorax -4.53331 -0.771604 1.06894
lowerneck -12.6358 -7.71611 -3.34664
upperneck 45.3647 -6.15545 -4.24832
head 19.7117 -2.64026 -2.38143
rclavicle -6.4063e-014 1.83876e-015
rhumerus -41.0429 1.35431 -86.5127
rradius 45.4626
rwrist -15.4161
rhand -25.3015 -12.3064
rfingers 7.12502
rthumb 1.22036 -42.2826
lclavicle -6.4063e-014 1.83876e-015
lhumerus -31.3369 1.89507 90.1794
lradius 24.493
lwrist 9.55098
lhand -24.5944 17.0305
lfingers 7.12502
lthumb 1.90333 47.0018
rfemur -16.1279 -4.64936 15.0594
rtibia 47.8643
rfoot -28.8543 15.9755
rtoes -6.38437
lfemur -3.77751 -6.87037 -11.8463
ltibia 35.6455
lfoot -37.5978 1.26896
ltoes -19.7646
288
root 4.34612 18.9824 60.8039 -190.883 74.6768 -189.666
lowerback 8.30987 -1.07124 -2.39112
upperback -0.030122 -1.6804 -0.917087
thorax -4.65253 -0.777059 0.594884
lowerneck -12.6454 -7.6651 -3.25301
upperneck 45.3059 -6.09537 -4.29352
head 19.6654 -2.61172 -2.40577
rclavicle -4.46458e-014 5.56597e-015
rhumerus -41.1161 1.50228 -86.677
rradius 45.4277
rwrist -15.509
rhand -25.3496 -12.3363
rfingers 7.12502
rthumb 1.17387 -42.3128
lclavicle -4.46458e-014 5.56597e-015
lhumerus -31.7973 2.1729 89.4772
lradius 24.7685
lwrist 10.7419
lhand -25.0241 17.3844
lfingers 7.12502
lthumb 1.48833 47.359
rfemur -16.0298 -4.69395 15.7777
rtibia 47.8851
rfoot -28.862 15.7138
rtoes -6.54561
lfemur -3.68716 -6.93697 -11.1378
ltibia 35.7103
lfoot -37.5566 1.18781
ltoes -19.5566
289
root 4.48169 18.9826 61.0346 -191.116 74.6206 -189.875
lowerback 8.34707 -1.04749 -2.5606
upperback -0.0121955 -1.66455 -0.900462
thorax -4.64995 -0.764977 0.705862
lowerneck -12.6417 -7.67795 -3.34601
upperneck 45.2676 -6.08807 -4.2906
head 19.6463 -2.62646 -2.385
rclavicle 1.50331e-015 -1.67476e-014
rhumerus -41.1805 1.68316 -86.6648
rradius 45.3957
rwrist -15.6733
rhand -25.5509 -12.3626
rfingers 7.12502
rthumb 0.979504 -42.3401
lclavicle 1.50331e-015 -1.67476e-014
lhumerus -32.255 2.61871 88.9286
lradius 25.114
lwrist 11.8481
lhand -25.1446 17.0599
lfingers 7.12502
lthumb 1.37192 47.0352
rfemur -16.0365 -4.79597 15.7366
rtibia 47.9562
rfoot -28.9373 15.3765
rtoes -7.19692
lfemur -3.70233 -7.06233 -11.2175
ltibia 35.7671
lfoot -37.5492 1.20199
ltoes -19.624
290
root 4.61924 18.9817 61.2633 -191.077 74.6549 -189.73
lowerback 8.42496 -1.04367 -2.55915
upperback 0.0522073 -1.65909 -0.897916
thorax -4.62663 -0.762489 0.707973
lowerneck -12.7655 -7.64005 -3.25963
upperneck 45.2418 -6.02579 -4.37436
head 19.6545 -2.60209 -2.43476
rclavicle 2.30714e-014 -4.22417e-015
rhumerus -41.1344 1.79712 -86.6604
rradius 45.2261
rwrist -15.7116
rhand -25.4735 -12.3542
rfingers 7.12502
rthumb 1.05422 -42.3313
lclavicle 2.30714e-014 -4.22417e-015
lhumerus -32.675 2.69692 88.408
lradius 25.5955
lwrist 13.4214
lhand -25.4073 17.0703
lfingers 7.12502
lthumb 1.11815 47.0471
rfemur -15.9259 -4.77697 15.7903
rtibia 47.9395
rfoot -28.9477 15.2189
rtoes -7.2692
lfemur -3.63956 -7.06081 -11.1763
ltibia 35.86
lfoot -37.5381 1.24733
ltoes -19.7624
